<mxfile host="app.diagrams.net" agent="Mozilla/5.0 (Windows NT 10.0; Win64; x64) AppleWebKit/537.36 (KHTML, like Gecko) Chrome/130.0.0.0 Safari/537.36" version="24.8.3">
  <diagram name="Page-1" id="KEU5XC75-2v2oAtST02G">
    <mxGraphModel dx="1050" dy="530" grid="1" gridSize="10" guides="1" tooltips="1" connect="1" arrows="1" fold="1" page="1" pageScale="1" pageWidth="850" pageHeight="1100" math="0" shadow="0">
      <root>
        <mxCell id="0" />
        <mxCell id="1" parent="0" />
        <mxCell id="ewVIxWT531oijjYbj_Aj-19" value="" style="edgeStyle=orthogonalEdgeStyle;rounded=0;orthogonalLoop=1;jettySize=auto;html=1;entryX=0.5;entryY=0;entryDx=0;entryDy=0;" edge="1" parent="1" source="ewVIxWT531oijjYbj_Aj-1" target="ewVIxWT531oijjYbj_Aj-10">
          <mxGeometry relative="1" as="geometry" />
        </mxCell>
        <mxCell id="ewVIxWT531oijjYbj_Aj-1" value="Product" style="swimlane;fontStyle=1;align=center;verticalAlign=top;childLayout=stackLayout;horizontal=1;startSize=26;horizontalStack=0;resizeParent=1;resizeParentMax=0;resizeLast=0;collapsible=1;marginBottom=0;whiteSpace=wrap;html=1;" vertex="1" parent="1">
          <mxGeometry x="330" y="170" width="240" height="104" as="geometry" />
        </mxCell>
        <mxCell id="ewVIxWT531oijjYbj_Aj-2" value="- Name : string &lt;div&gt;- Price : decimal&lt;/div&gt;" style="text;strokeColor=none;fillColor=none;align=left;verticalAlign=top;spacingLeft=4;spacingRight=4;overflow=hidden;rotatable=0;points=[[0,0.5],[1,0.5]];portConstraint=eastwest;whiteSpace=wrap;html=1;" vertex="1" parent="ewVIxWT531oijjYbj_Aj-1">
          <mxGeometry y="26" width="240" height="40" as="geometry" />
        </mxCell>
        <mxCell id="ewVIxWT531oijjYbj_Aj-3" value="" style="line;strokeWidth=1;fillColor=none;align=left;verticalAlign=middle;spacingTop=-1;spacingLeft=3;spacingRight=3;rotatable=0;labelPosition=right;points=[];portConstraint=eastwest;strokeColor=inherit;" vertex="1" parent="ewVIxWT531oijjYbj_Aj-1">
          <mxGeometry y="66" width="240" height="8" as="geometry" />
        </mxCell>
        <mxCell id="ewVIxWT531oijjYbj_Aj-4" value=" + Product(name: string, price: decimal)" style="text;strokeColor=none;fillColor=none;align=left;verticalAlign=top;spacingLeft=4;spacingRight=4;overflow=hidden;rotatable=0;points=[[0,0.5],[1,0.5]];portConstraint=eastwest;whiteSpace=wrap;html=1;" vertex="1" parent="ewVIxWT531oijjYbj_Aj-1">
          <mxGeometry y="74" width="240" height="30" as="geometry" />
        </mxCell>
        <mxCell id="ewVIxWT531oijjYbj_Aj-20" value="" style="edgeStyle=orthogonalEdgeStyle;rounded=0;orthogonalLoop=1;jettySize=auto;html=1;entryX=0.5;entryY=0;entryDx=0;entryDy=0;" edge="1" parent="1" source="ewVIxWT531oijjYbj_Aj-10" target="ewVIxWT531oijjYbj_Aj-14">
          <mxGeometry relative="1" as="geometry" />
        </mxCell>
        <mxCell id="ewVIxWT531oijjYbj_Aj-10" value="&lt;span style=&quot;text-align: left;&quot;&gt;Cart&amp;nbsp;&lt;/span&gt;" style="swimlane;fontStyle=1;align=center;verticalAlign=top;childLayout=stackLayout;horizontal=1;startSize=26;horizontalStack=0;resizeParent=1;resizeParentMax=0;resizeLast=0;collapsible=1;marginBottom=0;whiteSpace=wrap;html=1;" vertex="1" parent="1">
          <mxGeometry x="280" y="320" width="340" height="160" as="geometry" />
        </mxCell>
        <mxCell id="ewVIxWT531oijjYbj_Aj-11" value="&amp;nbsp;- products : List" style="text;strokeColor=none;fillColor=none;align=left;verticalAlign=top;spacingLeft=4;spacingRight=4;overflow=hidden;rotatable=0;points=[[0,0.5],[1,0.5]];portConstraint=eastwest;whiteSpace=wrap;html=1;" vertex="1" parent="ewVIxWT531oijjYbj_Aj-10">
          <mxGeometry y="26" width="340" height="24" as="geometry" />
        </mxCell>
        <mxCell id="ewVIxWT531oijjYbj_Aj-12" value="" style="line;strokeWidth=1;fillColor=none;align=left;verticalAlign=middle;spacingTop=-1;spacingLeft=3;spacingRight=3;rotatable=0;labelPosition=right;points=[];portConstraint=eastwest;strokeColor=inherit;" vertex="1" parent="ewVIxWT531oijjYbj_Aj-10">
          <mxGeometry y="50" width="340" height="8" as="geometry" />
        </mxCell>
        <mxCell id="ewVIxWT531oijjYbj_Aj-13" value="+ AddProduct(products: List, product: Product) : void&amp;nbsp;&lt;br&gt;+ RemoveProduct(products: List, productName: string) : void&amp;nbsp;&lt;br&gt;+ ViewCart(products: List) : void&amp;nbsp;&lt;br&gt;+ Checkout(products: List) : void&amp;nbsp;&lt;br&gt;- CalculateTotal(products: List) : decimal" style="text;strokeColor=none;fillColor=none;align=left;verticalAlign=top;spacingLeft=4;spacingRight=4;overflow=hidden;rotatable=0;points=[[0,0.5],[1,0.5]];portConstraint=eastwest;whiteSpace=wrap;html=1;" vertex="1" parent="ewVIxWT531oijjYbj_Aj-10">
          <mxGeometry y="58" width="340" height="102" as="geometry" />
        </mxCell>
        <mxCell id="ewVIxWT531oijjYbj_Aj-14" value="&lt;span style=&quot;text-align: left;&quot;&gt;Program&lt;/span&gt;&lt;span style=&quot;font-weight: 400; text-align: left;&quot;&gt;&amp;nbsp;&lt;/span&gt;" style="swimlane;fontStyle=1;align=center;verticalAlign=top;childLayout=stackLayout;horizontal=1;startSize=26;horizontalStack=0;resizeParent=1;resizeParentMax=0;resizeLast=0;collapsible=1;marginBottom=0;whiteSpace=wrap;html=1;" vertex="1" parent="1">
          <mxGeometry x="370" y="524" width="160" height="52" as="geometry" />
        </mxCell>
        <mxCell id="ewVIxWT531oijjYbj_Aj-15" value="+ Main() : void" style="text;strokeColor=none;fillColor=none;align=left;verticalAlign=top;spacingLeft=4;spacingRight=4;overflow=hidden;rotatable=0;points=[[0,0.5],[1,0.5]];portConstraint=eastwest;whiteSpace=wrap;html=1;" vertex="1" parent="ewVIxWT531oijjYbj_Aj-14">
          <mxGeometry y="26" width="160" height="26" as="geometry" />
        </mxCell>
      </root>
    </mxGraphModel>
  </diagram>
</mxfile>
